<?xml version="1.0" encoding="utf-8"?>
<!-- Generator: Adobe Illustrator 15.1.0, SVG Export Plug-In . SVG Version: 6.00 Build 0)  -->
<!DOCTYPE svg PUBLIC "-//W3C//DTD SVG 1.1//EN" "http://www.w3.org/Graphics/SVG/1.1/DTD/svg11.dtd">
<svg version="1.1" id="Layer_1" xmlns="http://www.w3.org/2000/svg" xmlns:xlink="http://www.w3.org/1999/xlink" x="0px" y="0px"
	 width="350px" height="57px" viewBox="0 0 350 57" enable-background="new 0 0 350 57" xml:space="preserve">
<g>
	<path d="M36.587,42c0,2.378-0.883,3.691-2.432,3.691c-1.366,0-2.292-1.282-2.314-3.595c0-2.346,1.013-3.639,2.433-3.639
		C35.748,38.458,36.587,39.772,36.587,42z M32.79,42.106c0,1.818,0.559,2.853,1.42,2.853c0.967,0,1.43-1.13,1.43-2.917
		c0-1.72-0.441-2.853-1.42-2.853C33.391,39.189,32.79,40.203,32.79,42.106z"/>
	<path d="M69.189,39.461h-0.022l-1.217,0.654l-0.183-0.719l1.528-0.819h0.808v6.994h-0.914V39.461z"/>
	<path d="M109.175,45.571v-0.579l0.741-0.722c1.787-1.699,2.594-2.605,2.604-3.66c0-0.711-0.344-1.365-1.388-1.365
		c-0.635,0-1.162,0.322-1.485,0.592l-0.3-0.666c0.483-0.41,1.173-0.713,1.98-0.713c1.506,0,2.141,1.034,2.141,2.033
		c0,1.293-0.936,2.337-2.41,3.757l-0.561,0.517v0.021h3.142v0.785H109.175z"/>
	<path d="M151.442,44.484c0.269,0.173,0.894,0.441,1.55,0.441c1.216,0,1.592-0.773,1.581-1.354
		c-0.011-0.979-0.894-1.399-1.808-1.399h-0.528v-0.71h0.528c0.688,0,1.561-0.355,1.561-1.184c0-0.56-0.356-1.055-1.228-1.055
		c-0.559,0-1.097,0.248-1.398,0.464l-0.247-0.69c0.365-0.269,1.076-0.539,1.829-0.539c1.377,0,2.001,0.818,2.001,1.669
		c0,0.723-0.43,1.335-1.291,1.646v0.021c0.861,0.174,1.56,0.82,1.56,1.799c0,1.118-0.872,2.099-2.55,2.099
		c-0.786,0-1.474-0.248-1.818-0.474L151.442,44.484z"/>
	<path d="M198.467,45.571v-1.905h-3.249v-0.623l3.119-4.466h1.021v4.349h0.979v0.74h-0.979v1.905H198.467z M198.467,42.926V40.59
		c0-0.367,0.009-0.73,0.033-1.098h-0.033c-0.216,0.407-0.387,0.711-0.58,1.033l-1.712,2.378v0.022H198.467z"/>
	<path d="M241.756,39.373h-2.667l-0.271,1.799c0.16-0.023,0.313-0.044,0.571-0.044c0.537,0,1.076,0.119,1.508,0.377
		c0.547,0.312,0.999,0.914,0.999,1.797c0,1.366-1.086,2.39-2.604,2.39c-0.764,0-1.408-0.218-1.741-0.433l0.235-0.721
		c0.289,0.173,0.861,0.388,1.496,0.388c0.894,0,1.655-0.58,1.655-1.517c-0.011-0.905-0.612-1.549-2.012-1.549
		c-0.397,0-0.71,0.042-0.969,0.072l0.453-3.355h3.346V39.373z"/>
	<path d="M283.614,39.245c-0.191-0.012-0.439,0-0.708,0.044c-1.485,0.246-2.272,1.334-2.433,2.484h0.031
		c0.334-0.441,0.916-0.806,1.69-0.806c1.237,0,2.109,0.893,2.109,2.259c0,1.279-0.872,2.465-2.324,2.465
		c-1.496,0-2.477-1.162-2.477-2.982c0-1.377,0.497-2.463,1.184-3.153c0.582-0.567,1.358-0.925,2.237-1.031
		c0.281-0.044,0.517-0.055,0.689-0.055V39.245z M283.348,43.279c0-1-0.571-1.603-1.442-1.603c-0.57,0-1.099,0.355-1.356,0.86
		c-0.064,0.107-0.106,0.247-0.106,0.419c0.021,1.153,0.548,2.003,1.538,2.003C282.799,44.959,283.348,44.28,283.348,43.279z"/>
	<path d="M313.805,38.318v3.035h3.509v-3.035h0.944v7.253h-0.944v-3.399h-3.509v3.399h-0.936v-7.253H313.805z"/>
	<path d="M324.57,42.926c0,1.926-1.336,2.766-2.596,2.766c-1.408,0-2.494-1.034-2.494-2.681c0-1.744,1.139-2.765,2.581-2.765
		C323.558,40.246,324.57,41.332,324.57,42.926z M320.438,42.979c0,1.141,0.654,2.001,1.581,2.001c0.904,0,1.581-0.852,1.581-2.024
		c0-0.881-0.44-2.001-1.559-2.001C320.919,40.955,320.438,41.988,320.438,42.979z"/>
	<path d="M330.256,40.363c-0.023,0.378-0.046,0.798-0.046,1.431v3.024c0,1.195-0.236,1.927-0.742,2.377
		c-0.507,0.475-1.236,0.626-1.893,0.626c-0.625,0-1.315-0.151-1.734-0.431l0.239-0.721c0.344,0.214,0.88,0.408,1.527,0.408
		c0.969,0,1.678-0.505,1.678-1.819v-0.58h-0.021c-0.29,0.485-0.851,0.872-1.656,0.872c-1.29,0-2.217-1.098-2.217-2.54
		c0-1.764,1.152-2.765,2.345-2.765c0.904,0,1.399,0.472,1.624,0.902h0.022l0.043-0.785H330.256z M329.274,42.419
		c0-0.161-0.011-0.301-0.055-0.431c-0.172-0.549-0.635-1-1.323-1c-0.902,0-1.55,0.764-1.55,1.968c0,1.022,0.518,1.874,1.539,1.874
		c0.583,0,1.109-0.368,1.314-0.969c0.055-0.163,0.074-0.345,0.074-0.508V42.419z"/>
	<path d="M332.312,43.14c0.021,1.281,0.84,1.808,1.787,1.808c0.678,0,1.087-0.117,1.442-0.269l0.162,0.679
		c-0.334,0.15-0.906,0.322-1.732,0.322c-1.604,0-2.563-1.056-2.563-2.626c0-1.571,0.926-2.808,2.443-2.808
		c1.702,0,2.153,1.495,2.153,2.452c0,0.195-0.022,0.345-0.032,0.441H332.312z M335.089,42.463c0.01-0.603-0.248-1.54-1.312-1.54
		c-0.958,0-1.378,0.883-1.453,1.54H335.089z"/>
	<path d="M337.18,41.988c0-0.613-0.01-1.139-0.043-1.625h0.828l0.031,1.022h0.043c0.238-0.7,0.808-1.14,1.444-1.14
		c0.107,0,0.182,0.01,0.269,0.032v0.894c-0.099-0.023-0.195-0.034-0.325-0.034c-0.666,0-1.14,0.507-1.269,1.217
		c-0.022,0.13-0.042,0.279-0.042,0.441v2.775h-0.937V41.988z"/>
</g>
<g>
	<rect x="21.971" y="24.487" fill="#FFFACC" width="21.836" height="8.64"/>
	<linearGradient id="SVGID_1_" gradientUnits="userSpaceOnUse" x1="43.8062" y1="28.8066" x2="327.2227" y2="28.8066">
		<stop  offset="0" style="stop-color:#E1EDFF"/>
		<stop  offset="1" style="stop-color:#004AA3"/>
	</linearGradient>
	<rect x="43.806" y="24.487" fill="url(#SVGID_1_)" width="283.417" height="8.64"/>
</g>
<rect x="-0.669" y="7.667" fill="none" width="351.338" height="12.667"/>
<text transform="matrix(1 0 0 1 131.5366 16.1865)" font-family="'MyriadPro-Regular'" font-size="12">Hoogte in meters</text>
</svg>
